<svg xmlns="http://www.w3.org/2000/svg" xmlns:xlink="http://www.w3.org/1999/xlink" viewBox="0 0 388.78 388.81"><defs><style>.cls-1{fill:none;stroke:#000;stroke-miterlimit:10;stroke-width:0.5px;}.cls-2{fill:url(#Pastel_Multicolor_1);}.cls-3{fill:#fff;}.cls-4{fill:#a19ece;}</style><linearGradient id="Pastel_Multicolor_1" x1="237.45" y1="430.79" x2="237.45" y2="44.1" gradientUnits="userSpaceOnUse"><stop offset="0" stop-color="#b6d5f0"/><stop offset="0.25" stop-color="#d5e8c0"/><stop offset="0.5" stop-color="#fcf8cc"/><stop offset="0.76" stop-color="#fee2d5"/><stop offset="0.99" stop-color="#f9cbdf"/></linearGradient></defs><g id="Layer_1" data-name="Layer 1"><path class="cls-1" d="M411,250.87" transform="translate(-43.06 -43.03)"/><path class="cls-1" d="M131.3,264.76" transform="translate(-43.06 -43.03)"/><path class="cls-2" d="M378.63,105.35c-3.74-4.11-6.68-2.89-8.66,3.9s-1,14.31-2.31,23.21-1.32,18.47-1.94,29.36-.36,39.87,0,45.87-1.64,18.4-5.5,18.4-4.06-9.23-3-24.4,4.52-48.13,5.18-63.62,1.58-30.37,0-40.88c-1.49-9.89-6-12.35-6-12.35l1.94,1.68c-7.33-6.59-15.54-11.62-24-16.45l-.91-.51c-3.42-2-7-.72-9.59,0s-2.31,3.57-3.54,10.16c-.46,2.49-.73,4.61-.92,6.8l.53,49.26c.25,4.91.4,9.06.3,11.52-.33,8.57,1.65,14.17-3.74,14.5s-6.15-4-5.13-17.14c.14-1.7.29-3.51.46-5.41l4.54-54.41a115.43,115.43,0,0,0-.74-14.37,18,18,0,0,0-9.38-13.79l-2.2-.82s-5.24-1.83-8.86-1.63-1,5.38.66,10.65,1.65,6.6,0,8.57-5.94-3-5.94-3c-3-3.3.49-11.17,0-16.24-.33-3.44-4.46-4.14-4.46-4.14l-5.51-1.31c-4.2-1-6.51,1.27-9.15,5.45s-1,8-1.32,20.54c0,1.08,0,2.39,0,3.88l2.79,83.17c.24,7.23.66,14.41,1.18,20.42,1,11.54.66,15.17,0,20.44s-6.59,6.6-12.2,3-2.31-11.87.33-20.77c1.85-6.24,2.57-15.56,2.88-25.45l.09-79.38c0-11.21-.08-17.47,0-25.82.08-8.72-11.21-9.49-11.21-9.49l1.82.15a149.71,149.71,0,0,0-15.33-.79c-2,0-3.95,0-5.9.11l-1.36-.11c-4.94,0-4.61,1.66-5.6,5s1,10.22,2.31,16.39.65,14.27,0,16.25-2.64,4.94-5.59,3.62S222,79.39,222,79.39c.43-7.91,1.23-10.22,1.56-22.42s-3.13-12.18-3.13-12.18l-3.85.31a13.16,13.16,0,0,0-7.85,4.56c-3.25,4-2.64,6-3,19.9-.15,6.46.26,22.24.72,38.92l.93,48.38c-.33,16.48,1.32,35.93,2.63,58.35.1,1.56.19,3.26.29,5.06l2.77,60.8c.38,9.23.7,17.06.9,21.83.66,15.82,5.28,47.14,6.26,56.7s-2.63,17.8-8.9,17.8-8.52-9.55-9-19.45c-.25-5.28,1.73-20.44,1.73-34.28V280.15l-1.6-59.88c0-1.75-.05-3.24-.05-4.4,0-11.87-1.32-47.8-1.65-56.7,0-.65,0-1.45-.08-2.36l-1.58-43.91c-.14-3.91-.25-7.21-.31-9.45C198.55,92.58,197,77,196.3,62,195.58,45.51,187,50.22,187,50.22l1-.39c-6,1-8.09,1.82-11.43,3.64l-1.09.76c-6.92,3.69-5.81,11.64-5.81,25s.62,40,.5,46c-.25,12.24,1.74,21.89,2.47,26.7,1.11,7.35-1,14.84-4,16.32s-5.44-1.48-7.54-7.91,1.61-32.64,2.1-46.48,2.46-47.21-.49-52.87c-.82-1.58-3.59-.54-3.59-.54a88.88,88.88,0,0,0-16.34,8.22l-1.26.91c-6.58,3.32-9.69,8.74-9.8,26.57l.58,19.27.2,4.87c.62,14.83.74,21.81,2.35,40.54.15,1.74.29,3.45.43,5.13l8.49,97.6a68.16,68.16,0,0,1,0,8.7c-.33,9.23-2.3,12.86-5.6,13.85s-5.28-6.27-6.59-17.15c-.11-.91-.22-2.33-.33-4.18l-2.25-98.82c0-.9,0-1.63-.05-2.16-.32-10.22-.89-30.33-1.33-38.9-.19-3.62-.32-6.68-.42-9.41l-.74-18.35c0-.51-.07-1-.1-1.56-1.21-18.31-5.52-12.11-8.35-10.21l.07,0A179.65,179.65,0,0,0,98,103.49l-1.59,1.67c-3.38,3.73-3,5.69-3.94,9.36s-1.54,7-1.42,14.65a162.83,162.83,0,0,0,2.31,23.73c1,5.28-3.3,15.83-6.22,11.54s-.71-10.55-.38-20.11.66-17.8,0-23.1-3.88,0-3.88,0L84,119.81A192.51,192.51,0,0,0,44.1,237.45c0,106.78,86.56,193.34,193.35,193.34s193.34-86.56,193.34-193.34a192.5,192.5,0,0,0-22.15-90l.58,1.12s-3.52-6.47-7.27-8.56-3.3,2-4,6.26,0,10.88,1.09,19.12-.76,10.55-.1,21.1-2,12.53-6.37,8.57-2.53-24.72-1.54-35.6,2.31-25.72,3-30.66-1.58-7-1.58-7l1,1.29a169,169,0,0,0-13.5-16.42Z" transform="translate(-43.06 -43.03)"/><path class="cls-3" d="M325.43,220.08a11.7,11.7,0,0,0-11.44-5.8c-8.12.74-11.77-1.68-14.2,3.31-3.23,6.65-13.84,8.87-6.75,10.48s38.67,7.57,31.36,2c-2.06-1.57,24.28,4.86,27.11,2.74,4.56-3.4-1.48-4.87-7.44-8.81s-8.63-3.36-12.9-3S322.33,225.44,325.43,220.08Z" transform="translate(-43.06 -43.03)"/><path class="cls-3" d="M430.71,231.73s-1.73-4.57-9.31,0-12.2,13.15-14.51,14.14-6.59-2.71-8.57-2.68-3.95,1.36-6.92,1.36-7.25-3.62-17.14,1.49-11.54,11.37-10.55,15.32,11.21,10.22,19.45,11.21a35.23,35.23,0,0,0,21.1-4.29c5.27-3,5.93-.66,8.57,1.32s8.85,4,11.86,3.2a4.36,4.36,0,0,0,3.44-3.17" transform="translate(-43.06 -43.03)"/><path class="cls-3" d="M420.5,298.68s1.26-2.68-3.39-2.11c-6.28.78-6.59,4.23-9.56,0s-16.64-15.33-28.92-15.21-32.4,2.09-45.25,6.37-32,9.23-40.22,26.71-3.8,20.44-4.62,27c-.91,7.41,4.62,11.87-12.85,7.58,0,0-24.73,4.62-34.29,14.84s-18.13,15.82-18.13,27,1,16.81,22.09,21.1,35.93,5.27,47.47,3.62,36.32-7.76,41-10.55,17-12.18,17-12.18.06,1-.6-4,2.86-11.87,10.83-16.48,11.65-2.3,15.87-4.29l4.8-2.25,21.85-29.45Z" transform="translate(-43.06 -43.03)"/><path class="cls-3" d="M112.44,315.44l-.17.07a55.42,55.42,0,0,0-16.86,10.8c-7.66,7.37-14.8,12.77-14.1,19.89.3,3.15,3.63,4.56,7.08,5.73s5,4.18,3.35,7.26c-.95,1.76-2.67-.44-1.92.72,2.1,3.26,10.94,14.69,19.39,20.27,4,2.61,6.65,3.54,8.8,3.52,8.8-.08,22.29-4.85,34.94-13,6.31-4.07-8.39-6.74-4.33-8.94,6.5-3.52,9.4-1.72,15.22-2.15,7.35-.55,18.64-5.71,22.43-10.73,4.72-6.26,14.07-12.71,14.09-19.44,0-2.76-3.84-5.47-14.09-6.75-4.88-.61-7.52,1.55-12.82,1.51-4.35,0-5.56,1-12.64-2.8-8.22-4.4,3.2-9.61-2.71-13.2-5.45-3.32-10.09-6.28-22.37-4.42s-12.29,2.92-16.88,6.92S118,312.83,112.44,315.44Z" transform="translate(-43.06 -43.03)"/><path class="cls-4" d="M211.4,378.45c-5.93,0-9.39-7.08-10-20.45-.11-2.39.21-6.58.61-11.88.5-6.57,1.12-14.74,1.12-22.45V280.15L201.5,220.3c0-1.77,0-3.27,0-4.43,0-11-1.15-43.29-1.65-56.67l-1.67-46.26c-.13-3.91-.24-7.21-.31-9.46-.19-6.39-.76-14.47-1.36-23-.42-6-.87-12.25-1.22-18.44-.38-6.89-2.27-9.56-3.78-10.59a3.84,3.84,0,0,0-3.12-.61c-6,1-8,1.77-11.25,3.57l-1,.7c-5.57,3-5.51,9.11-5.39,19.26,0,1.54,0,3.16,0,4.87,0,6.63.16,16.71.29,25.59.15,9.34.27,17.41.21,20.42a125.91,125.91,0,0,0,2.07,24.08c.15.92.29,1.74.39,2.45,1.13,7.5-1,15.63-4.52,17.41a4,4,0,0,1-3.43.18c-2.12-.89-3.94-3.74-5.57-8.7-1.44-4.43-.32-17.21.78-29.57.57-6.45,1.1-12.55,1.27-17.28.07-2,.18-4.5.29-7.23.65-15.16,1.73-40.53-.66-45.12-.27-.52-1.67-.28-2.3,0a86.77,86.77,0,0,0-16.16,8.13l-1.21.87c-6.17,3.12-9.25,7.93-9.36,25.73l1,30.4c.44,11,.73,18.33,2.09,34.19l.43,5.13,8.49,97.59a61.09,61.09,0,0,1,0,7.8l0,1c-.33,9.14-2.23,13.56-6.35,14.8a3,3,0,0,1-2.55-.37c-2.44-1.6-4.09-7-5.38-17.64-.11-.93-.22-2.37-.33-4.25l-2.52-108.06c-.32-10.53-.75-25-1.11-31.82-.19-3.63-.32-6.69-.42-9.43l-.84-19.89c-.65-9.77-2.16-11.46-2.78-11.73s-1.82.66-2.76,1.43c-.41.33-.81.65-1.18.9h0a178.87,178.87,0,0,0-19.86,18l-1.6,1.68A11.27,11.27,0,0,0,94,112.59c-.13.67-.27,1.39-.46,2.18-.89,3.65-1.51,6.82-1.39,14.38a161.56,161.56,0,0,0,2.29,23.56c.8,4.25-1.62,12.28-4.76,13.57-.57.25-2.07.61-3.34-1.25-2.22-3.26-1.77-7.46-1.2-12.78.25-2.35.54-5,.64-7.95l0-1.4c.31-8.9.58-16.58,0-21.54-.16-1.23-.42-1.49-.43-1.49a6.48,6.48,0,0,0-.52.55v0l-1.08,1.42h0c-3.62,4.81-7,9.84-10.21,15l-1.77-1.09c3.18-5.17,6.65-10.25,10.31-15.11.62-1,2.16-3.13,3.8-2.74s1.87,2.51,2,3.22c.63,5.12.36,12.89,0,21.87l0,1.4c-.1,3-.39,5.72-.65,8.1-.54,5.08-.94,8.75.86,11.39.44.66.69.54.81.5,1.89-.78,4.23-7.42,3.51-11.27A165.89,165.89,0,0,1,90,129.18c-.12-7.8.53-11.1,1.45-14.9.19-.76.32-1.44.44-2.08a13.27,13.27,0,0,1,3.74-7.74l1.62-1.69a181.34,181.34,0,0,1,20.21-18.3h0c.32-.22.66-.5,1-.79,1.38-1.11,3.08-2.5,4.91-1.71,2.26,1,3.46,5,4,13.51l.1,1.57.74,18.36c.1,2.74.23,5.79.42,9.41.36,6.88.8,21.32,1.12,31.87l.27,9.2,2.25,98.84c.1,1.78.2,3.18.31,4.08,1.44,11.87,3.22,15.33,4.46,16.14a.91.91,0,0,0,.8.13c2.07-.63,4.49-2.65,4.86-12.89l0-1a58.94,58.94,0,0,0,0-7.55l-8.91-102.71c-1.37-15.9-1.67-23.22-2.11-34.29l-.45-11.18-.58-19.28c.11-18.81,3.73-24.18,10.37-27.53l1.12-.82a90,90,0,0,1,16.57-8.35c1.36-.51,3.91-.86,4.9,1,2.44,4.69,1.78,25.38.9,46.16-.12,2.73-.22,5.19-.29,7.23-.17,4.78-.72,10.9-1.29,17.39-1,11.58-2.18,24.71-.87,28.72,1.75,5.36,3.36,7,4.4,7.43a2,2,0,0,0,1.69-.12c2.44-1.22,4.46-8.15,3.39-15.23-.11-.7-.24-1.51-.39-2.42a128.36,128.36,0,0,1-2.09-24.46c.06-3-.07-11.41-.21-20.35s-.29-19-.29-25.62c0-1.7,0-3.31,0-4.84-.12-10.57-.19-17.55,6.4-21.07l1-.69c3.56-2,5.74-2.76,11.84-3.82h0a5.88,5.88,0,0,1,4.8.9c2.76,1.89,4.33,6,4.69,12.21s.79,12.42,1.21,18.4c.6,8.58,1.17,16.68,1.37,23.11.07,2.24.18,5.54.31,9.45l1.67,46.26c.61,16.62,1.65,46.11,1.65,56.74,0,1.15,0,2.64,0,4.39l1.61,59.86v43.55c0,7.79-.63,16-1.13,22.6-.38,5-.71,9.37-.61,11.63.33,6.9,1.79,18.46,7.94,18.46a6,6,0,0,0,4.56-2.17c2.66-2.95,3.92-8.5,3.3-14.49-.29-2.83-.9-7.57-1.63-13.26-1.76-13.64-4.16-32.32-4.63-43.5l-.9-21.82-2.77-60.8c-.1-1.79-.2-3.48-.29-5q-.45-7.61-.92-14.77c-1.06-16.56-2-30.87-1.72-43.66l-.92-48.34c-.48-17.59-.87-32.67-.72-39,.05-2.3.08-4.27.11-6C205,54.93,205,52.61,208,49a14.2,14.2,0,0,1,8.53-4.94l3.89-.31a2.71,2.71,0,0,1,1.85.88c1.78,1.82,2.59,6,2.41,12.37-.2,7.45-.57,11.2-.94,14.83-.23,2.33-.45,4.53-.61,7.61-.05.28-1.11,4,1,4.93a2.13,2.13,0,0,0,1.81.06,5.3,5.3,0,0,0,2.36-3.06c.61-1.86,1.24-9.72,0-15.7-.25-1.14-.51-2.31-.78-3.48-1.23-5.39-2.39-10.48-1.51-13.43.13-.43.24-.83.33-1.21.76-2.87,1.43-4.49,6.27-4.49,1.32-.05,3.33,0,5.1,0l2.16,0c5.12,0,6.19.07,9,.27l4.56.37c4.23.29,12.23,2.87,12.16,10.54,0,5.31,0,9.77,0,15.19,0,3.11,0,6.54,0,10.62l-.09,79.38c-.38,12.15-1.31,20.33-2.92,25.75-.27.92-.55,1.84-.83,2.75-2.31,7.52-4.29,14,.07,16.84,2.86,1.85,6,2.39,8.12,1.38a4.33,4.33,0,0,0,2.48-3.6c.65-5.22,1-8.74,0-20.22-.52-6.13-.95-13.4-1.19-20.47l-2.78-83.18c0-1.52,0-2.84,0-3.93.11-4.35,0-7.63-.11-10.27-.19-5-.3-7.81,1.59-10.8,2.32-3.67,5-7.16,10.27-5.92l5.51,1.32c.14,0,4.86.86,5.26,5.05a28.14,28.14,0,0,1-.59,6.86c-.58,3.49-1.18,7.11.33,8.79,1.09,1.26,3.15,3.1,4.14,3.1h0c1.49-1.64,1.63-2.52,0-7.69-.3-1-.63-1.91-.95-2.83-1.23-3.52-2.2-6.31-1.08-8a2.78,2.78,0,0,1,2.31-1.18c3.8-.21,9,1.61,9.26,1.69l2.23.82a18.86,18.86,0,0,1,10,14.66,113.4,113.4,0,0,1,.75,14.5l-4.55,54.48c-.16,1.9-.31,3.71-.45,5.4-.62,8.07-.65,13.43,1.11,15.23a3.38,3.38,0,0,0,2.91.79c2.74-.17,3-1.68,2.8-7.59-.05-1.75-.11-3.73,0-5.91s0-5.74-.3-11.43l-.53-49.3a68.89,68.89,0,0,1,.94-7c.28-1.51.48-2.83.65-4,.59-3.92.95-6.29,3.64-7l.7-.2c2.61-.73,6.18-1.75,9.69.31l.89.5c8.57,4.91,14.75,8.59,22.2,14.89.09,0,4.33,3,6.38,12.93,1.75,8.44,1.13,19.81.49,31.86-.17,3-.34,6.15-.47,9.27-.41,9.55-1.88,25.86-3.18,40.24-.81,9-1.59,17.58-2,23.41-.67,9.4-1.16,20.49,1.08,22.89.47.5,1.06.62,1.77-.13,2.45-2.58,3.81-11.81,3.54-16.77-.32-5.79-.59-35,0-46,.19-3.22.32-6.33.44-9.33a197.62,197.62,0,0,1,1.51-20.12,95.12,95.12,0,0,0,.83-10.63c.18-4.49.35-8.72,1.51-12.72,1.22-4.17,2.82-6.44,4.91-6.92,1.72-.39,3.58.48,5.52,2.61l1.27,1.37a171.51,171.51,0,0,1,12.65,15.24,5.49,5.49,0,0,1,.64.89l.29.39,0,0a10.69,10.69,0,0,1,.86,6.4c-.58,4.33-1.65,16.15-2.6,26.57l-.36,4c-.85,9.31-2.83,31.1,1.2,34.74,1.43,1.28,2.6,1.84,3.23,1.54.45-.22,1.88-1.53,1.4-9.28a69.15,69.15,0,0,1,.18-11.25,39.53,39.53,0,0,0-.07-9.77c-1.16-8.8-1.75-15.12-1.09-19.42.12-.77.2-1.53.28-2.25.26-2.48.47-4.46,1.93-5.21.86-.45,1.94-.3,3.29.44,3,1.7,5.84,5.91,7.05,7.9l.05,0a193.63,193.63,0,0,1,12.09,28.17l-2,.67a190.78,190.78,0,0,0-11.37-26.74h0c0-.06-3.41-6.24-6.86-8.15-1-.57-1.31-.42-1.32-.42-.45.24-.67,2.25-.81,3.58-.08.75-.16,1.54-.29,2.35-.62,4,0,10.45,1.1,18.83a42.23,42.23,0,0,1,.09,10.21,66.47,66.47,0,0,0-.19,11c.42,6.65-.4,10.23-2.57,11.28-1.49.72-3.36.1-5.53-1.87-4.44-4-3.3-20.92-1.89-36.47l.37-4c.94-10.45,2-22.29,2.6-26.67a8.51,8.51,0,0,0-.71-5.3l-.68-.92h0a168.3,168.3,0,0,0-12.47-15l-1.29-1.38c-1-1.06-2.32-2.27-3.51-2s-2.43,2.23-3.38,5.47c-1.09,3.75-1.25,7.87-1.42,12.22a97.75,97.75,0,0,1-.86,10.85,195.32,195.32,0,0,0-1.49,19.9c-.12,3-.25,6.14-.44,9.37-.62,10.92-.35,40,0,45.76.25,4.61-.94,15-4.11,18.31a3.17,3.17,0,0,1-4.81.12c-2.3-2.46-2.74-9.09-1.64-24.45.41-5.85,1.19-14.4,2-23.46,1.3-14.36,2.77-30.63,3.18-40.14.13-3.13.3-6.24.46-9.3.64-11.9,1.25-23.14-.44-31.32-1.86-9-5.57-11.67-5.6-11.7-7.4-6.24-13.5-9.88-22-14.72l-.9-.51c-2.75-1.62-5.59-.82-8.08-.11l-.73.2c-1.31.36-1.55,1.57-2.12,5.32-.17,1.16-.37,2.49-.66,4a67.19,67.19,0,0,0-.91,6.7l.54,49.16c.29,5.78.37,9.36.29,11.57s0,4,0,5.77c.16,5.26.3,9.43-4.76,9.74a5.59,5.59,0,0,1-4.53-1.42c-2.34-2.38-2.4-7.76-1.7-16.85.14-1.7.29-3.52.46-5.42l4.54-54.4a114.63,114.63,0,0,0-.74-14.17,17,17,0,0,0-8.78-13l-2.13-.79s-5.08-1.77-8.43-1.56c-.37,0-.6.1-.7.25-.54.81.49,3.77,1.32,6.15.33.94.66,1.91,1,2.88,1.67,5.34,1.84,7.13-.19,9.56a2.26,2.26,0,0,1-1.79.84h0c-2.31,0-5.17-3.17-5.72-3.8-2.16-2.41-1.48-6.53-.82-10.51a27.44,27.44,0,0,0,.57-6.32c-.25-2.59-3.46-3.19-3.59-3.21l-5.58-1.33c-3.23-.75-5.17.46-8,5-1.55,2.45-1.46,4.84-1.28,9.62.1,2.66.23,6,.11,10.39,0,1.06,0,2.36,0,3.84l2.78,83.15c.23,7,.65,14.27,1.18,20.36,1,11.69.67,15.29,0,20.66a6.42,6.42,0,0,1-3.66,5.23c-2.85,1.33-6.63.76-10.14-1.51-5.69-3.69-3.38-11.23-.94-19.21.28-.9.56-1.82.83-2.74,1.56-5.24,2.46-13.25,2.83-25.18l.09-79.35c0-4.08,0-7.51,0-10.61,0-5.44,0-9.9,0-15.22.08-7.62-9.81-8.41-10.23-8.44l-4.43-.36c-2.91-.2-4-.28-9-.28h-2.18c-1.74,0-3.71,0-5,0-3.51,0-3.68.63-4.29,2.94-.11.4-.22.82-.35,1.28-.73,2.42.42,7.48,1.54,12.37.27,1.17.54,2.35.79,3.51,1.32,6.2.72,14.51,0,16.78a7.26,7.26,0,0,1-3.5,4.32,4.26,4.26,0,0,1-3.51-.07c-3.73-1.67-2.21-7-2.14-7.18.12-2.89.34-5.11.58-7.47.36-3.59.73-7.31.93-14.68.28-10.23-2.17-11.11-2.2-11.12l-3.66.31a12.36,12.36,0,0,0-7.12,4.19c-2.48,3-2.51,4.8-2.63,13.26,0,1.72-.06,3.69-.11,6-.15,6.25.24,21.3.72,38.87l.93,48.39c-.25,12.75.66,27,1.72,43.53q.45,7.17.92,14.78c.09,1.56.18,3.26.28,5.07l3.68,82.63c.46,11.09,2.85,29.72,4.61,43.33.73,5.7,1.35,10.47,1.64,13.31.69,6.66-.74,12.67-3.83,16.1A8.12,8.12,0,0,1,211.4,378.45Z" transform="translate(-43.06 -43.03)"/><path class="cls-4" d="M237.1,431.84A194.44,194.44,0,0,1,71.76,135.73l1.77,1.09A192.35,192.35,0,0,0,237.1,429.75h.35c106-.19,192.3-86.46,192.3-192.3a191.88,191.88,0,0,0-10.08-61.6l2-.67a194.05,194.05,0,0,1,10.18,62.27c0,107-87.2,194.2-194.38,194.39Z" transform="translate(-43.06 -43.03)"/><path class="cls-3" d="M96.75,106.29s.36,4.4,3.65,2.19c3.14-2.12,7.33-3.58,9-3.32a4.82,4.82,0,0,1,3.79,3.4c.66,2,1.82,5.11,6.1,6.1s14.67,1.16,19.78,0,11.89-4.57,14-8.94c1.53-3.25.43-12.39-11.2-12.91,0,0-11.08.87-14.12,4a3.69,3.69,0,0,1-2.42,1.2,3.28,3.28,0,0,1-1.11-2.83c.23-3.34.59-2.57-1.29-4.46-1.49-1.5,1.5-6.1-5-4.17Z" transform="translate(-43.06 -43.03)"/><path class="cls-3" d="M253,112a54.33,54.33,0,0,0-7.54-2,55.65,55.65,0,0,1-8-2.6,44.84,44.84,0,0,1-4.64-2.32c-2.16-1.13-6.22-3-9.58-2.9-7.07.17-15.45,4.34-22,9.23s-5.29,10.88-7.29,16.15-14.55,6.14-13.73,18.78c.45,6.94,13.55,8.55,27.29,10.51,18.76,2.67,20.68-4.52,27.67-4.58,8.15-.06,11.4,5.09,27.38,9.42,7.87,2.13,32.31-1.77,36.48-5.24,17.6-14.62-49.21-5.77-6.14-20.58,6.42-2.21,36.09-7.31,44.42-12.39,5.17-3.16,16.21-27.09-6-26.5-21.48.58-30.93-3-35.9-5.53-7.63-3.83-20-4.84-31.45-6.32-12.19-1.58-16.63.87-22.72,6.32a7.78,7.78,0,0,0-1.43,9.83c.77,1.27,9.41,5,11.31,6.51a25.2,25.2,0,0,1,3,2.59A1,1,0,0,1,253,112Z" transform="translate(-43.06 -43.03)"/><path class="cls-3" d="M46.08,249.33s.82,8.73,8.08,8.08,20.26-2,28.75-6.6,22-11.21,26-10.88,8.57,1.32,5.27,5.28-8.57,4.94-14.17,9.89S94.7,267.3,101.63,267s22.41-1.32,33.62-2.64,26.95-2,32.1,1.32,15.37,8.9,24.6,11.21,22.75,6.26,37.26,3.62,21.1-7.25,24.06-14.5,8.57-24.4-4.61-32.64S225.55,221.06,214,220.27s-31.25,2.19-38.53,2.19-17.84.64-19.16-2.32-2-7.9,4.29-13.83,13.18-12.53,11.86-20.77-13.56-13.7-25.38-16.93-25.38-2.85-33-1.53-16,0-31.24,5.93-22.15,11.36-28.1,16.49-4,8.65-6.26,12.11l-3.13,25.63Z" transform="translate(-43.06 -43.03)"/></g></svg>